<svg width="60" height="60" viewBox="0 0 60 60" fill="none" xmlns="http://www.w3.org/2000/svg">
<path d="M18 24.81L33 16.14C33.9117 15.6136 34.9458 15.3364 35.9985 15.3361C37.0512 15.3359 38.0854 15.6126 38.9973 16.1385C39.9093 16.6643 40.6668 17.4209 41.1938 18.3322C41.7209 19.2434 41.9989 20.2773 42 21.33V38.67C41.9989 39.7222 41.7212 40.7556 41.1946 41.6665C40.6681 42.5774 39.9112 43.3339 39 43.86C38.0879 44.3866 37.0532 44.6638 36 44.6638C34.9468 44.6638 33.9121 44.3866 33 43.86L18 35.19C17.0908 34.6626 16.336 33.9055 15.8114 32.9947C15.2868 32.0838 15.0106 31.0511 15.0106 30C15.0106 28.9489 15.2868 27.9162 15.8114 27.0053C16.336 26.0945 17.0908 25.3374 18 24.81ZM21 30L36 38.67V21.33L21 30ZM30 0C35.9334 0 41.7336 1.7595 46.6671 5.0559C51.6006 8.3524 55.4457 13.0377 57.7164 18.5195C59.987 24.0013 60.5811 30.0333 59.4235 35.8527C58.266 41.6721 55.4088 47.0176 51.2132 51.2132C47.0176 55.4088 41.6721 58.266 35.8527 59.4235C30.0333 60.5811 24.0013 59.987 18.5195 57.7164C13.0377 55.4457 8.35241 51.6006 5.05591 46.6671C1.75951 41.7336 1.14441e-05 35.9334 1.14441e-05 30C1.14441e-05 26.0603 0.776012 22.1593 2.28361 18.5195C3.79131 14.8797 6.00101 11.5726 8.78681 8.7868C11.5726 6.001 14.8797 3.7913 18.5195 2.2836C22.1593 0.776 26.0603 0 30 0ZM30 54C34.7467 54 39.3869 52.5924 43.3337 49.9553C47.2805 47.3181 50.3566 43.5698 52.1731 39.1844C53.9896 34.799 54.4649 29.9734 53.5388 25.3178C52.6128 20.6623 50.327 16.3859 46.9706 13.0294C43.6141 9.673 39.3377 7.3872 34.6822 6.4612C30.0266 5.5351 25.201 6.0104 20.8156 7.8269C16.4302 9.6434 12.6819 12.7195 10.0447 16.6663C7.40761 20.6131 6.00001 25.2532 6.00001 30C6.00001 36.3652 8.52861 42.4697 13.0294 46.9705C17.5303 51.4714 23.6348 54 30 54Z" fill="#F2F8FD"/>
</svg>
