<svg width="60" height="60" viewBox="0 0 60 60" fill="none" xmlns="http://www.w3.org/2000/svg">
<path d="M42 24.81L27 16.14C26.0883 15.6136 25.0542 15.3364 24.0015 15.3361C22.9488 15.3359 21.9146 15.6126 21.0027 16.1385C20.0907 16.6643 19.3332 17.4209 18.8062 18.3322C18.2791 19.2434 18.0011 20.2773 18 21.33V38.67C18.0011 39.7222 18.2788 40.7556 18.8054 41.6665C19.3319 42.5774 20.0888 43.3339 21 43.86C21.9121 44.3866 22.9468 44.6638 24 44.6638C25.0532 44.6638 26.0879 44.3866 27 43.86L42 35.19C42.9092 34.6626 43.664 33.9055 44.1886 32.9947C44.7132 32.0838 44.9894 31.0511 44.9894 30C44.9894 28.9489 44.7132 27.9162 44.1886 27.0053C43.664 26.0945 42.9092 25.3374 42 24.81ZM39 30L24 38.67V21.33L39 30ZM30 0C24.0666 0 18.2664 1.7595 13.3329 5.0559C8.39939 8.3524 4.55429 13.0377 2.28359 18.5195C0.0129867 24.0013 -0.581113 30.0333 0.576487 35.8527C1.73399 41.6721 4.59119 47.0176 8.78679 51.2132C12.9824 55.4088 18.3279 58.266 24.1473 59.4235C29.9667 60.5811 35.9987 59.987 41.4805 57.7164C46.9623 55.4457 51.6476 51.6006 54.9441 46.6671C58.2405 41.7336 60 35.9334 60 30C60 26.0603 59.224 22.1593 57.7164 18.5195C56.2087 14.8797 53.999 11.5726 51.2132 8.7868C48.4274 6.001 45.1203 3.7913 41.4805 2.2836C37.8407 0.776 33.9397 0 30 0ZM30 54C25.2533 54 20.6131 52.5924 16.6663 49.9553C12.7195 47.3181 9.64339 43.5698 7.82689 39.1844C6.01039 34.799 5.53509 29.9734 6.46119 25.3178C7.38719 20.6623 9.67299 16.3859 13.0294 13.0294C16.3859 9.673 20.6623 7.3872 25.3178 6.4612C29.9734 5.5351 34.799 6.0104 39.1844 7.8269C43.5698 9.6434 47.3181 12.7195 49.9553 16.6663C52.5924 20.6131 54 25.2532 54 30C54 36.3652 51.4714 42.4697 46.9706 46.9705C42.4697 51.4714 36.3652 54 30 54Z" fill="#F2F8FD"/>
</svg>
