<svg width="72" height="72" viewBox="0 0 72 72" fill="none" xmlns="http://www.w3.org/2000/svg">
<path d="M35.7698 71.97C55.4974 71.97 71.4898 55.9776 71.4898 36.25C71.4898 16.5224 55.4974 0.530029 35.7698 0.530029C16.0422 0.530029 0.0498047 16.5224 0.0498047 36.25C0.0498047 55.9776 16.0422 71.97 35.7698 71.97Z" fill="#C91430"/>
<path d="M15.8596 31.2701C16.0696 31.4301 16.2496 31.56 16.4296 31.69C19.9496 34.18 23.4796 36.6801 26.9996 39.1701C29.8396 41.1801 32.6797 43.18 35.5097 45.19C35.6997 45.32 35.8096 45.2801 35.9696 45.1701C37.8796 43.8201 39.7897 42.47 41.6897 41.12C44.4097 39.2 47.1296 37.27 49.8496 35.35C51.7196 34.03 53.5797 32.7101 55.4497 31.3901C55.4797 31.3701 55.5097 31.3401 55.5697 31.2801C55.3897 31.1501 55.2296 31.0101 55.0596 30.8901C53.3196 29.6601 51.5797 28.43 49.8297 27.2C49.7397 27.13 49.6396 27.0701 49.5596 27.0001C49.2996 26.7801 49.2497 26.5 49.4397 26.24C49.6197 25.99 49.9097 25.9401 50.1997 26.1401C51.2597 26.8801 52.3096 27.63 53.3696 28.37C54.4696 29.15 55.5596 29.92 56.6596 30.7C57.2196 31.1 57.2296 31.44 56.6596 31.84C54.4796 33.39 52.2896 34.93 50.1096 36.47C47.3696 38.41 44.6396 40.3501 41.9096 42.2801C39.9796 43.6501 38.0396 45.0101 36.1096 46.3801C35.8396 46.5701 35.5897 46.55 35.3197 46.36C33.2197 44.87 31.1197 43.3901 29.0197 41.9001C26.1297 39.8601 23.2396 37.8201 20.3596 35.7701C18.4796 34.4401 16.6096 33.1201 14.7296 31.7901C14.2496 31.4501 14.2496 31.08 14.7296 30.74C16.8596 29.23 18.9997 27.72 21.1297 26.21C21.3297 26.07 21.5297 25.9401 21.7797 26.0501C22.1997 26.2301 22.2396 26.7301 21.8496 27.0201C21.1996 27.5001 20.5296 27.9601 19.8696 28.4301C18.5496 29.3701 17.2296 30.3001 15.8596 31.2701Z" fill="#FAE6E2"/>
<path d="M57.1395 36.75C57.0095 36.91 56.9195 37.0899 56.7695 37.1999C55.6795 37.9899 54.5794 38.76 53.4894 39.53C51.1594 41.18 48.8395 42.8199 46.5095 44.4699C43.7795 46.3999 41.0495 48.33 38.3195 50.25C37.5795 50.77 36.8394 51.28 36.1094 51.81C35.8494 52 35.6094 51.99 35.3494 51.81C32.2794 49.64 29.2095 47.47 26.1395 45.29C22.8295 42.95 19.5095 40.6 16.1995 38.26C15.7095 37.91 15.2094 37.5599 14.7194 37.2099C14.3794 36.9699 14.2894 36.6399 14.4894 36.3699C14.6794 36.1099 14.9995 36.0899 15.3295 36.3199C17.3995 37.7799 19.4595 39.2399 21.5295 40.6999C24.6895 42.9299 27.8394 45.16 30.9994 47.39C32.5094 48.46 34.0095 49.5199 35.5095 50.5999C35.6695 50.7099 35.7794 50.7199 35.9394 50.5999C39.4594 48.0999 42.9895 45.6099 46.5095 43.1199C49.7095 40.8599 52.9094 38.5999 56.0994 36.3299C56.4394 36.0899 56.6895 36.07 56.8995 36.29C56.9895 36.39 57.0294 36.5299 57.1294 36.7099L57.1395 36.75Z" fill="#FAE6E2"/>
<path d="M57.1697 42.17C57.0097 42.36 56.9097 42.54 56.7497 42.65C55.4997 43.55 54.2397 44.4299 52.9897 45.3199C50.9497 46.7599 48.9097 48.21 46.8697 49.66C44.8297 51.1 42.7797 52.54 40.7397 53.99C39.2097 55.07 37.6797 56.15 36.1397 57.23C35.7997 57.47 35.6697 57.47 35.3097 57.22C33.1197 55.68 30.9397 54.13 28.7497 52.59C25.0597 49.98 21.3697 47.37 17.6797 44.76C16.6897 44.06 15.6997 43.36 14.7197 42.66C14.3797 42.42 14.2897 42.0899 14.4997 41.8199C14.6897 41.5599 15.0097 41.55 15.3397 41.79C19.7197 44.88 24.0997 47.9799 28.4797 51.0699C30.8297 52.7299 33.1797 54.3999 35.5297 56.0699C35.7197 56.1999 35.8397 56.14 35.9897 56.04C38.1197 54.53 40.2397 53.03 42.3697 51.53C46.4697 48.63 50.5697 45.7199 54.6797 42.8199C55.1997 42.4499 55.7097 42.07 56.2497 41.74C56.3997 41.65 56.6597 41.64 56.8197 41.71C56.9597 41.77 57.0397 41.9899 57.1797 42.1899L57.1697 42.17Z" fill="#FAE6E2"/>
<path d="M35.7598 38.3199C33.4498 38.2799 31.5598 36.52 31.4498 34.2C31.4198 33.53 31.6198 32.82 31.8398 32.17C32.7098 29.54 33.9497 27.07 35.2197 24.62C35.3297 24.41 35.4797 24.29 35.7197 24.29C35.9897 24.29 36.1298 24.44 36.2398 24.65C37.0898 26.42 37.9698 28.18 38.7698 29.98C39.1898 30.93 39.5198 31.93 39.8298 32.92C40.5498 35.21 38.9597 37.62 36.8597 38.11C36.4897 38.2 36.1198 38.2499 35.7498 38.3199H35.7598ZM35.7297 26C35.6297 26.19 35.5698 26.3 35.5198 26.4C34.5398 28.4 33.5698 30.41 32.8398 32.52C32.6198 33.15 32.4197 33.8 32.5497 34.47C32.8297 36 33.8898 36.9799 35.4398 37.1899C37.1798 37.4199 38.9198 35.9 38.9398 34.15C38.9398 33.45 38.7498 32.79 38.4898 32.16C37.7898 30.49 37.0598 28.8401 36.3298 27.1801C36.1598 26.8001 35.9598 26.44 35.7398 26H35.7297Z" fill="#FAE6E2"/>
<path d="M22.2095 23.72C22.2295 22.8 22.4694 22.1101 22.7194 21.4301C23.4594 19.3901 24.4294 17.44 25.4094 15.51C25.5294 15.28 25.6794 15.1 25.9694 15.11C26.2394 15.12 26.3795 15.2901 26.4995 15.5201C27.5095 17.5001 28.5094 19.49 29.2394 21.59C29.4094 22.08 29.5795 22.59 29.6395 23.1C29.7995 24.36 29.3494 25.43 28.4094 26.26C26.4594 27.99 23.4094 27.2401 22.4694 24.8001C22.3194 24.4101 22.2695 23.97 22.2095 23.73V23.72ZM25.9894 16.86C25.9894 16.86 25.9094 16.86 25.8694 16.86C25.1794 18.43 24.4694 19.99 23.8094 21.58C23.5694 22.17 23.3294 22.8101 23.3094 23.4301C23.2594 25.2801 25.0995 26.58 26.8295 25.96C28.2895 25.43 28.9395 23.98 28.3995 22.48C27.9995 21.39 27.5694 20.31 27.1094 19.23C26.7694 18.42 26.3594 17.64 25.9794 16.85L25.9894 16.86Z" fill="#FAE6E2"/>
<path d="M49.2498 23.56C49.1798 25.28 48.0098 26.7299 46.3198 27.1099C44.1998 27.5799 42.3098 26.17 41.8698 24.3C41.6898 23.51 41.8298 22.78 42.0698 22.05C42.8198 19.75 43.9198 17.5999 45.0098 15.4499C45.1198 15.2399 45.2898 15.0799 45.5198 15.1299C45.6998 15.1699 45.9198 15.2899 45.9998 15.4399C46.8598 17.2399 47.7298 19.0399 48.5298 20.8599C48.8298 21.5499 48.9898 22.3 49.1998 23.02C49.2498 23.19 49.2398 23.3799 49.2598 23.5699L49.2498 23.56ZM45.5898 16.8699C45.5898 16.8699 45.5198 16.8699 45.4898 16.8699C45.2998 17.2599 45.0998 17.65 44.9098 18.04C44.1698 19.6 43.4198 21.1599 42.9598 22.8299C42.4598 24.6499 44.0698 26.3899 45.9298 26.0799C47.5398 25.8099 48.4198 24.22 48.1098 23.04C47.9398 22.38 47.7398 21.7199 47.4698 21.0899C46.8698 19.6699 46.2198 18.2699 45.5898 16.8599V16.8699Z" fill="#FAE6E2"/>
<path d="M35.7196 15.99C35.8796 16.06 36.0197 16.1001 36.1297 16.1801C37.7897 17.3501 39.4396 18.5199 41.0996 19.6899C41.4596 19.9499 41.5696 20.16 41.4796 20.41C41.3196 20.8 40.9396 20.89 40.5496 20.62C39.8396 20.12 39.1296 19.61 38.4196 19.11C37.5996 18.53 36.7797 17.96 35.9597 17.37C35.7997 17.25 35.6997 17.24 35.5297 17.37C34.0097 18.46 32.4697 19.54 30.9397 20.62C30.8897 20.66 30.8397 20.69 30.7797 20.72C30.4797 20.86 30.2196 20.8 30.0496 20.54C29.8796 20.28 29.8996 20.06 30.1696 19.84C30.5096 19.57 30.8596 19.33 31.2196 19.09C32.5696 18.14 33.9097 17.18 35.2597 16.24C35.3997 16.14 35.5497 16.08 35.7097 16L35.7196 15.99Z" fill="#FAE6E2"/>
</svg>
